<svg width="81" height="28" viewBox="0 0 81 28" fill="none" xmlns="http://www.w3.org/2000/svg">
<path d="M3.98705 27.9896H0V0H17.2426L3.98705 27.9896Z" fill="#99A1B7"/>
<path d="M47.25 27.793L42.6206 27.793L42.6206 17.1082L42.509 17.1082L39.8318 27.793L35.537 27.793L32.9155 17.1082L32.804 17.1082L32.804 27.793L28.3977 27.793L28.3977 14.1992L36.039 14.1992L37.8238 21.6394L37.9354 21.6394L39.6087 14.1992L47.25 14.1992L47.25 27.793Z" fill="#99A1B7"/>
<path d="M64.4863 27.793L59.0203 27.793L58.0721 24.884L54.0004 24.884L53.108 27.793L47.9208 27.793L52.6618 14.1992L59.6338 14.1992L64.4863 27.793ZM57.5143 21.6394L56.1199 17.3879L56.0641 17.3879L54.6697 21.6394L57.5143 21.6394Z" fill="#99A1B7"/>
<path d="M80.5488 27.793L74.525 27.793L72.0709 23.2058L72.0151 23.2058L69.6725 27.793L64.0391 27.793L68.8358 20.8003L64.5969 14.1992L70.5649 14.1992L72.5171 18.227L72.5728 18.227L74.7481 14.1992L80.2142 14.1992L75.6963 20.8003L80.5488 27.793Z" fill="#99A1B7"/>
<path d="M6.91016 28H24.5931V20.7051H10.3568L6.91016 28Z" fill="#343E4D"/>
<path d="M20.1264 0.00585938L16.6797 7.30076H24.5921V0.00585938H20.1264Z" fill="#343E4D"/>
<path d="M11.7949 17.6656H24.5926V10.3403H15.2416L11.7949 17.6656Z" fill="#343E4D"/>
</svg>
