<svg width="35" height="28" viewBox="0 0 35 28" fill="none" xmlns="http://www.w3.org/2000/svg">
<path d="M3.98705 27.9896H0V0H17.2426L3.98705 27.9896Z" fill="#99A1B7"/>
<path d="M34.1834 17.84V20.3202H28.4589V20.38L34.1834 21.8144V24.1153L28.4589 25.5198V25.5796H34.1834V27.9403H26.9004V23.8464L30.8866 22.8901V22.8304L26.9004 21.9339V17.84H34.1834Z" fill="#99A1B7"/>
<path d="M34.1834 8.60608V11.5346L32.6249 12.0426V14.224L34.1834 14.7021V17.4812L26.9004 14.9412V11.2059L34.1834 8.60608ZM30.8866 12.3414L28.6087 13.0885V13.1184L30.8866 13.8654V12.3414Z" fill="#99A1B7"/>
<path d="M34.1834 0V3.22732L31.7257 4.54215V4.57204L34.1834 5.82711V8.84525L30.437 6.27535L26.9004 8.54642V5.34899L29.0583 4.30309V4.27321L26.9004 3.10779V0.179296L30.437 2.59979L34.1834 0Z" fill="#99A1B7"/>
<path d="M6.90942 27.9999H24.5924V20.705H10.3561L6.90942 27.9999Z" fill="#343E4D"/>
<path d="M20.1266 0.00561523L16.6799 7.30051H24.5923V0.00561523H20.1266Z" fill="#343E4D"/>
<path d="M11.7947 17.6655H24.5924V10.3402H15.2414L11.7947 17.6655Z" fill="#343E4D"/>
</svg>
